<?xml version="1.0" encoding="UTF-8"?><svg id="Layer_1" xmlns="http://www.w3.org/2000/svg" viewBox="0 0 1000 1000"><defs><style>.cls-1{fill:#fff;}.cls-2{fill:#ffd449;}.cls-3{fill:#f37667;}.cls-4{fill:#739e82;}</style></defs><path class="cls-4" d="M230.7952,657.5864c94.0307,81.2443,200.7956,87.4006,228.5784,87.5583-.263,1.3682.105-1.4208,0,0-25.5729,13.5756-114.9204,55.8817-217.1074-3.315,0,0-65.5635-44.2527-104.5546-84.875-39.0435-40.622-55.5133-63.9323-105.9754-96.5037,0,0,12.7341-8.9454,40.78-15.8911,74.7195-18.4168,153.5435,5.2093,208.0044,59.6705,36.9389,36.9386,92.3995,80.5075,160.2786,97.3984,0,0-90.4526,34.5183-194.3232-46.463-76.2457-59.5125-110.6059-79.2974-132.3377-82.9281,0,0,55.303,32.361,116.657,85.3487Z"/><path class="cls-3" d="M483.0536,733.1759s-.5787.3684-1.6839,1.0521c.0527-.3681.1053-.6838.2107-.9998.9471-.0523,1.4732-.0523,1.4732-.0523Z"/><path class="cls-3" d="M971.2699,560.175c-50.4621,32.5714-66.9846,55.8817-105.9754,96.5037-38.9908,40.6223-104.5546,84.875-104.5546,84.875-106.2384,61.512-198.3749,15.2071-219.7384,3.315-.0527-.8944.158.8948,0,0,22.9946.2107,133.8636-3.5254,231.2094-87.5583,61.3017-52.9877,116.657-85.3487,116.657-85.3487-21.7318,3.6307-56.0921,23.4157-132.3901,82.9281-103.8178,80.9812-194.3232,46.463-194.3232,46.463,67.9314-16.8909,123.3924-60.4599,160.331-97.3984,54.4612-54.4612,133.2322-78.0872,208.0044-59.6705,28.0459,6.9458,40.78,15.8911,40.78,15.8911Z"/><path class="cls-2" d="M427.7662,682.1228s-169.5214-73.6-184.6034-237.0886c0,0-5.8317-106.5793,3.4186-133.5257,0,0,127.0908,5.2284,197.0711,84.0569,0,0-88.8831,123.4711-15.8863,286.5575Z"/><path class="cls-2" d="M562.7195,682.1228s163.5211-70.9949,183.6495-228.4162c.791-6.1866,1.1572-12.3866,1.4281-18.6177,1.1783-27.0977,3.6293-101.6682-3.8928-123.5805,0,0-127.0908,5.2284-197.0711,84.0569,0,0,88.8831,123.4711,15.8863,286.5575Z"/><path class="cls-4" d="M140.8734,178.0081s270.7487,60.9759,335.4231,189.8318h0s-90.894-80.4372-275.0952-102.1552c0,0-23.3268,177.7662,31.3705,266.2471,0,0-119.047-104.5684-91.6984-353.9237Z"/><path class="cls-4" d="M511.363,675.0578c20.3237-43.7116,39.3567-134.1193-3.6288-240.6562l17.1783-27.1787s84.1975,141.5388-13.5495,267.8349Z"/><path class="cls-3" d="M765.848,491.8776c57.6422-108.2481,32.7122-238.5841,32.7122-238.5841,0,0-112.5353-15.657-261.9766,121.2492-112.6283,103.2157-74.0913,240.7743-44.4548,300.1407-2.5629,1.4912,2.097-2.097,0,0-43.3365-50.0933-98.4159-146.9717-14.1195-291.0073,102.6098-175.2567,377.5406-205.1731,377.5406-205.1731,21.7614,207.8756-86.58,310.4854-89.702,313.3745Z"/><path class="cls-1" d="M497.152,679.6766l2.6541,23.5816c1.6134,14.3359,12.9277,25.65,27.2634,27.2636l23.5818,2.6541-23.5818,2.6541c-14.3358,1.6134-25.65,12.9277-27.2634,27.2634l-2.6541,23.5818-2.6541-23.5818c-1.6134-14.3358-12.9277-25.65-27.2636-27.2634l-23.5816-2.6541,23.5816-2.6541c14.3359-1.6136,25.6502-12.9277,27.2636-27.2636l2.6541-23.5816Z"/><path class="cls-1" d="M497.152,238.9836l2.6541,23.5816c1.6134,14.3359,12.9277,25.65,27.2634,27.2636l23.5818,2.6541-23.5818,2.6541c-14.3358,1.6134-25.65,12.9277-27.2634,27.2634l-2.6541,23.5818-2.6541-23.5818c-1.6134-14.3358-12.9277-25.65-27.2636-27.2634l-23.5816-2.6541,23.5816-2.6541c14.3359-1.6136,25.6502-12.9277,27.2636-27.2636l2.6541-23.5816Z"/><path class="cls-1" d="M497.152,190.8911l.8366,7.4333c.5086,4.5189,4.075,8.0853,8.5939,8.5939l7.4334.8366-7.4334.8366c-4.5189.5086-8.0853,4.075-8.5939,8.5939l-.8366,7.4334-.8366-7.4334c-.5086-4.5189-4.075-8.0853-8.5939-8.5939l-7.4333-.8366,7.4333-.8366c4.5189-.5086,8.0853-4.075,8.5939-8.5939l.8366-7.4333Z"/></svg>