<?xml version="1.0" encoding="UTF-8"?>
<svg id="Layer_1" data-name="Layer 1" xmlns="http://www.w3.org/2000/svg" viewBox="0 0 3715.228 3715.228">
  <defs>
    <style>
      .cls-1 {
        fill: #fff;
      }
    </style>
  </defs>
  <g>
    <path class="cls-1" d="M3312.064,1840.484c-94.613,0-143.769,74.604-143.769,201.918v323.862c0,171.086-92.823,227.418-196.534,227.418h-76.693v-98.248h49.441c89.151,0,103.711-81.857,103.711-151.017v-323.862c0-176.452,120.075-227.379,161.885-232.855v-3.653c-41.81-5.483-161.885-56.378-161.885-232.863v-323.86c0-69.153-14.56-151.025-103.711-151.025h-49.441v-98.24h76.693c103.711,0,196.534,56.403,196.534,227.417v323.862c0,127.386,49.156,201.918,143.769,201.918v109.225Z"/>
    <path class="cls-1" d="M317.798,1840.484c94.62,0,143.749,74.604,143.749,201.918v323.862c0,171.086,92.85,227.418,196.547,227.418h76.711v-98.248h-49.473c-89.125,0-103.697-81.857-103.697-151.017v-323.862c0-176.452-120.088-227.379-161.88-232.855v-3.653c41.791-5.483,161.88-56.378,161.88-232.863v-323.86c0-69.153,14.572-151.025,103.697-151.025h49.473v-98.24h-76.711c-103.697,0-196.547,56.403-196.547,227.417v323.862c0,127.386-49.129,201.918-143.749,201.918v109.225Z"/>
  </g>
  <path class="cls-1" d="M2520.222,2008.754c13.937,27.258,22.722,57.929,22.722,90.935,0,109.972-89.072,199.044-199.064,199.044-34.063,0-65.96-9.538-93.835-24.922-34.83,29.32-78.82,47.683-127.562,47.683-20.153,0-39.216-4.062-57.902-9.538,0,0,197.545,223.602,65.246,425.21,6.255-253.618-318.592-331.031-410.169-495.213,38.807-24.585,72.15-57.584,105.942-92.42,108.824-111.05,221.02-226.167,578.037-104.827,0,0-313.311-248.35-658.363,26.473-26.122,20.801-45.023,45.016-66.752,62.223-30.386,22.761-67.363,37.061-108.448,37.061-55.748,0-105.221-25.323-139.26-64.078-27.121,9.811-56.507,16.065-87.314,16.065-111.476,0-204.928-71.865-239.758-171.585l.745-.377c-16.519-81.357,8.201-145.948,63.457-195.358,146.242-130.8,414.575-114.365,414.575-114.365-173.733-79.572-364.017-69.289-484.189,26.376-51.328,40.715-85.134,93.874-100.907,154.307-21.593-42.473-34.038-90.461-34.038-141.862,0-175.913,142.64-318.514,318.605-318.514,9.844,0,19.025,2.264,28.861,2.907,43.304-117.921,155.78-202.698,288.843-202.698,48.073,0,92.421,12.108,133.089,31.113,48.054-54.951,118.07-90.494,196.878-90.494,62.3,0,118.775,22.015,163.494,58.37-53.504,31.449-93.823,72.838-118.336,125.252-1.855,4.061-3.05,8.116-4.412,12.139h-.376c-130.897,259.678-331.732,174.797-331.732,174.797,42.525,35.239,94.483,53.536,150.602,53.536,17.299,0,35.193-1.83,53.101-5.139,38.593-7.675,75.201-23.437,108.979-44.335,7.695,56.099,143.289,97.157,143.289,97.157-18.336-43.628-91.941-80.384-17.623-240.473,17.7-38.145,50.609-67.394,96.781-88.359,19.075-5.145,38.879-8.422,59.77-8.422,145.159,0,262.832,117.647,262.832,262.82,0,.745-.363,1.828-.363,2.607,100.44,43.589,170.827,143.654,170.827,259.847,0,107.098-59.772,198.701-146.274,247.058h0Z"/>
</svg>